<mxfile host="app.diagrams.net" agent="Mozilla/5.0 (Windows NT 10.0; Win64; x64) AppleWebKit/537.36 (KHTML, like Gecko) Chrome/136.0.0.0 Safari/537.36 Edg/136.0.0.0" version="26.2.12">
  <diagram name="第 1 页" id="FUrA-Y1KFeBuuCMGg9Ev">
    <mxGraphModel dx="1187" dy="615" grid="1" gridSize="10" guides="1" tooltips="1" connect="1" arrows="1" fold="1" page="1" pageScale="1" pageWidth="827" pageHeight="1169" math="0" shadow="0">
      <root>
        <mxCell id="0" />
        <mxCell id="1" parent="0" />
        <mxCell id="cPTbtJAyMzu0GjUrW38b-12" style="rounded=0;orthogonalLoop=1;jettySize=auto;html=1;exitX=1;exitY=0.5;exitDx=0;exitDy=0;entryX=0;entryY=0.5;entryDx=0;entryDy=0;" edge="1" parent="1" source="cPTbtJAyMzu0GjUrW38b-1" target="cPTbtJAyMzu0GjUrW38b-5">
          <mxGeometry relative="1" as="geometry" />
        </mxCell>
        <mxCell id="cPTbtJAyMzu0GjUrW38b-1" value="&lt;font style=&quot;font-size: 18px;&quot;&gt;WX&lt;/font&gt;" style="rounded=0;whiteSpace=wrap;html=1;" vertex="1" parent="1">
          <mxGeometry x="70" y="90" width="120" height="60" as="geometry" />
        </mxCell>
        <mxCell id="cPTbtJAyMzu0GjUrW38b-15" style="edgeStyle=orthogonalEdgeStyle;rounded=0;orthogonalLoop=1;jettySize=auto;html=1;exitX=0.5;exitY=1;exitDx=0;exitDy=0;entryX=0.5;entryY=0;entryDx=0;entryDy=0;" edge="1" parent="1" source="cPTbtJAyMzu0GjUrW38b-2" target="cPTbtJAyMzu0GjUrW38b-6">
          <mxGeometry relative="1" as="geometry" />
        </mxCell>
        <mxCell id="cPTbtJAyMzu0GjUrW38b-2" value="&lt;font style=&quot;font-size: 18px;&quot;&gt;WM&lt;/font&gt;" style="whiteSpace=wrap;html=1;" vertex="1" parent="1">
          <mxGeometry x="500" y="60" width="120" height="60" as="geometry" />
        </mxCell>
        <mxCell id="cPTbtJAyMzu0GjUrW38b-13" style="edgeStyle=orthogonalEdgeStyle;rounded=0;orthogonalLoop=1;jettySize=auto;html=1;exitX=1;exitY=0.5;exitDx=0;exitDy=0;entryX=0;entryY=0.5;entryDx=0;entryDy=0;" edge="1" parent="1" source="cPTbtJAyMzu0GjUrW38b-3" target="cPTbtJAyMzu0GjUrW38b-5">
          <mxGeometry relative="1" as="geometry" />
        </mxCell>
        <mxCell id="cPTbtJAyMzu0GjUrW38b-3" value="&lt;font style=&quot;font-size: 18px;&quot;&gt;W&lt;/font&gt;" style="rounded=0;whiteSpace=wrap;html=1;" vertex="1" parent="1">
          <mxGeometry x="70" y="170" width="120" height="60" as="geometry" />
        </mxCell>
        <mxCell id="cPTbtJAyMzu0GjUrW38b-14" style="rounded=0;orthogonalLoop=1;jettySize=auto;html=1;exitX=1;exitY=0.5;exitDx=0;exitDy=0;entryX=0;entryY=0.5;entryDx=0;entryDy=0;" edge="1" parent="1" source="cPTbtJAyMzu0GjUrW38b-4" target="cPTbtJAyMzu0GjUrW38b-5">
          <mxGeometry relative="1" as="geometry" />
        </mxCell>
        <mxCell id="cPTbtJAyMzu0GjUrW38b-18" style="edgeStyle=orthogonalEdgeStyle;rounded=0;orthogonalLoop=1;jettySize=auto;html=1;exitX=1;exitY=0.5;exitDx=0;exitDy=0;entryX=0;entryY=0.5;entryDx=0;entryDy=0;" edge="1" parent="1" source="cPTbtJAyMzu0GjUrW38b-4" target="cPTbtJAyMzu0GjUrW38b-6">
          <mxGeometry relative="1" as="geometry" />
        </mxCell>
        <mxCell id="cPTbtJAyMzu0GjUrW38b-4" value="&lt;font style=&quot;font-size: 18px;&quot;&gt;X&lt;/font&gt;" style="rounded=0;whiteSpace=wrap;html=1;" vertex="1" parent="1">
          <mxGeometry x="70" y="270" width="120" height="60" as="geometry" />
        </mxCell>
        <mxCell id="cPTbtJAyMzu0GjUrW38b-16" style="rounded=0;orthogonalLoop=1;jettySize=auto;html=1;exitX=1;exitY=0.5;exitDx=0;exitDy=0;entryX=0;entryY=0.5;entryDx=0;entryDy=0;" edge="1" parent="1" source="cPTbtJAyMzu0GjUrW38b-5" target="cPTbtJAyMzu0GjUrW38b-6">
          <mxGeometry relative="1" as="geometry" />
        </mxCell>
        <mxCell id="cPTbtJAyMzu0GjUrW38b-5" value="&lt;font style=&quot;font-size: 18px;&quot;&gt;M&lt;/font&gt;" style="rounded=0;whiteSpace=wrap;html=1;" vertex="1" parent="1">
          <mxGeometry x="310" y="170" width="120" height="60" as="geometry" />
        </mxCell>
        <mxCell id="cPTbtJAyMzu0GjUrW38b-6" value="&lt;font style=&quot;font-size: 18px;&quot;&gt;Y&lt;/font&gt;" style="rounded=0;whiteSpace=wrap;html=1;" vertex="1" parent="1">
          <mxGeometry x="500" y="270" width="120" height="60" as="geometry" />
        </mxCell>
        <mxCell id="cPTbtJAyMzu0GjUrW38b-20" style="rounded=0;orthogonalLoop=1;jettySize=auto;html=1;exitX=1;exitY=0.5;exitDx=0;exitDy=0;entryX=0;entryY=0.5;entryDx=0;entryDy=0;" edge="1" parent="1" source="cPTbtJAyMzu0GjUrW38b-8" target="cPTbtJAyMzu0GjUrW38b-6">
          <mxGeometry relative="1" as="geometry" />
        </mxCell>
        <mxCell id="cPTbtJAyMzu0GjUrW38b-8" value="&lt;font style=&quot;font-size: 18px;&quot;&gt;WX&lt;/font&gt;" style="rounded=0;whiteSpace=wrap;html=1;" vertex="1" parent="1">
          <mxGeometry x="310" y="450" width="120" height="60" as="geometry" />
        </mxCell>
        <mxCell id="cPTbtJAyMzu0GjUrW38b-19" style="rounded=0;orthogonalLoop=1;jettySize=auto;html=1;exitX=1;exitY=0.5;exitDx=0;exitDy=0;entryX=0;entryY=0.5;entryDx=0;entryDy=0;" edge="1" parent="1" source="cPTbtJAyMzu0GjUrW38b-9" target="cPTbtJAyMzu0GjUrW38b-6">
          <mxGeometry relative="1" as="geometry" />
        </mxCell>
        <mxCell id="cPTbtJAyMzu0GjUrW38b-9" value="&lt;font style=&quot;font-size: 18px;&quot;&gt;W&lt;/font&gt;" style="rounded=0;whiteSpace=wrap;html=1;" vertex="1" parent="1">
          <mxGeometry x="310" y="360" width="120" height="60" as="geometry" />
        </mxCell>
        <mxCell id="cPTbtJAyMzu0GjUrW38b-21" value="&lt;font style=&quot;font-size: 18px;&quot;&gt;b2&lt;/font&gt;" style="text;html=1;align=center;verticalAlign=middle;whiteSpace=wrap;rounded=0;" vertex="1" parent="1">
          <mxGeometry x="500" y="160" width="60" height="30" as="geometry" />
        </mxCell>
        <mxCell id="cPTbtJAyMzu0GjUrW38b-24" value="&lt;font style=&quot;font-size: 18px;&quot;&gt;a1&lt;/font&gt;" style="text;html=1;align=center;verticalAlign=middle;whiteSpace=wrap;rounded=0;" vertex="1" parent="1">
          <mxGeometry x="220" y="120" width="60" height="30" as="geometry" />
        </mxCell>
        <mxCell id="cPTbtJAyMzu0GjUrW38b-25" value="&lt;font style=&quot;font-size: 18px;&quot;&gt;a2&lt;/font&gt;" style="text;html=1;align=center;verticalAlign=middle;whiteSpace=wrap;rounded=0;" vertex="1" parent="1">
          <mxGeometry x="200" y="170" width="60" height="30" as="geometry" />
        </mxCell>
        <mxCell id="cPTbtJAyMzu0GjUrW38b-26" value="&lt;font style=&quot;font-size: 18px;&quot;&gt;a3&lt;/font&gt;" style="text;html=1;align=center;verticalAlign=middle;whiteSpace=wrap;rounded=0;" vertex="1" parent="1">
          <mxGeometry x="200" y="230" width="60" height="30" as="geometry" />
        </mxCell>
        <mxCell id="cPTbtJAyMzu0GjUrW38b-27" value="&lt;span style=&quot;font-size: 18px;&quot;&gt;c1&lt;/span&gt;" style="text;html=1;align=center;verticalAlign=middle;whiteSpace=wrap;rounded=0;" vertex="1" parent="1">
          <mxGeometry x="330" y="270" width="60" height="30" as="geometry" />
        </mxCell>
        <mxCell id="cPTbtJAyMzu0GjUrW38b-30" value="&lt;font style=&quot;font-size: 18px;&quot;&gt;b1&lt;/font&gt;" style="text;html=1;align=center;verticalAlign=middle;whiteSpace=wrap;rounded=0;" vertex="1" parent="1">
          <mxGeometry x="450" y="220" width="60" height="30" as="geometry" />
        </mxCell>
        <mxCell id="cPTbtJAyMzu0GjUrW38b-31" value="&lt;span style=&quot;font-size: 18px;&quot;&gt;c2&lt;/span&gt;" style="text;html=1;align=center;verticalAlign=middle;whiteSpace=wrap;rounded=0;" vertex="1" parent="1">
          <mxGeometry x="416" y="322" width="60" height="30" as="geometry" />
        </mxCell>
        <mxCell id="cPTbtJAyMzu0GjUrW38b-32" value="&lt;span style=&quot;font-size: 18px;&quot;&gt;c3&lt;/span&gt;" style="text;html=1;align=center;verticalAlign=middle;whiteSpace=wrap;rounded=0;" vertex="1" parent="1">
          <mxGeometry x="450" y="400" width="60" height="30" as="geometry" />
        </mxCell>
      </root>
    </mxGraphModel>
  </diagram>
</mxfile>
